{
  "accessors": [
    {
      "bufferView": 3,
      "componentType": 5126,
      "count": 2500,
      "max": [
        0.1094432920217514,
        0.2451435625553131,
        1.2855905294418335
      ],
      "min": [
        -0.10805726051330566,
        -0.08619692921638489,
        1.0108561515808105
      ],
      "type": "VEC3"
    },
    {
      "bufferView": 3,
      "byteOffset": 30000,
      "componentType": 5126,
      "count": 2500,
      "max": [
        0.9997361898422241,
        0.9986717104911804,
        0.9961509704589844
      ],
      "min": [
        -0.9996658563613892,
        -0.9973648190498352,
        -0.9961516261100769
      ],
      "type": "VEC3"
    },
    {
      "bufferView": 2,
      "componentType": 5126,
      "count": 2500,
      "max": [
        0.51318359375,
        0.9970703125
      ],
      "min": [
        0.0006008148193359375,
        0.11614990234375
      ],
      "type": "VEC2"
    },
    {
      "bufferView": 1,
      "componentType": 5125,
      "count": 9384,
      "type": "SCALAR"
    },
    {
      "bufferView": 3,
      "byteOffset": 60000,
      "componentType": 5126,
      "count": 6438,
      "max": [
        0.15556344389915466,
        0.22298301756381989,
        0.29853779077529907
      ],
      "min": [
        -0.15469932556152344,
        -0.20272289216518402,
        -0.11190507560968399
      ],
      "type": "VEC3"
    },
    {
      "bufferView": 3,
      "byteOffset": 137256,
      "componentType": 5126,
      "count": 6438,
      "max": [
        0.9999979734420776,
        0.9996007680892944,
        0.9998788833618164
      ],
      "min": [
        -0.9999966025352478,
        -0.9995324015617371,
        -0.99886155128479
      ],
      "type": "VEC3"
    },
    {
      "bufferView": 2,
      "byteOffset": 20000,
      "componentType": 5126,
      "count": 6438,
      "max": [
        0.51318359375,
        0.9970703125
      ],
      "min": [
        0.0006008148193359375,
        0.07562255859375
      ],
      "type": "VEC2"
    },
    {
      "bufferView": 1,
      "byteOffset": 37536,
      "componentType": 5125,
      "count": 14820,
      "type": "SCALAR"
    },
    {
      "bufferView": 3,
      "byteOffset": 214512,
      "componentType": 5126,
      "count": 7386,
      "max": [
        0.24128860235214233,
        0.3282090723514557,
        0.4435381591320038
      ],
      "min": [
        -0.24128924310207367,
        -0.2083413451910019,
        -0.23751606047153473
      ],
      "type": "VEC3"
    },
    {
      "bufferView": 3,
      "byteOffset": 303144,
      "componentType": 5126,
      "count": 7386,
      "max": [
        1.0,
        0.9999714493751526,
        0.9999487996101379
      ],
      "min": [
        -1.0,
        -0.9999714493751526,
        -0.9999487400054932
      ],
      "type": "VEC3"
    },
    {
      "bufferView": 2,
      "byteOffset": 71504,
      "componentType": 5126,
      "count": 7386,
      "max": [
        0.51318359375,
        0.9970703125
      ],
      "min": [
        0.0006008148193359375,
        0.07562255859375
      ],
      "type": "VEC2"
    },
    {
      "bufferView": 1,
      "byteOffset": 96816,
      "componentType": 5125,
      "count": 28152,
      "type": "SCALAR"
    },
    {
      "bufferView": 3,
      "byteOffset": 391776,
      "componentType": 5126,
      "count": 3963,
      "max": [
        0.40466612577438354,
        1.2975327968597412,
        0.16832880675792694
      ],
      "min": [
        -0.404339075088501,
        -0.01270688883960247,
        -0.19419370591640472
      ],
      "type": "VEC3"
    },
    {
      "bufferView": 3,
      "byteOffset": 439332,
      "componentType": 5126,
      "count": 3963,
      "max": [
        0.999100387096405,
        0.9990394115447998,
        0.9998864531517029
      ],
      "min": [
        -0.9999616742134094,
        -0.999998927116394,
        -0.9998903274536133
      ],
      "type": "VEC3"
    },
    {
      "bufferView": 2,
      "byteOffset": 130592,
      "componentType": 5126,
      "count": 3963,
      "max": [
        0.99365234375,
        0.978515625
      ],
      "min": [
        0.007167816162109375,
        0.0020008087158203125
      ],
      "type": "VEC2"
    },
    {
      "bufferView": 1,
      "byteOffset": 209424,
      "componentType": 5125,
      "count": 19074,
      "type": "SCALAR"
    },
    {
      "bufferView": 3,
      "byteOffset": 486888,
      "componentType": 5126,
      "count": 2852,
      "max": [
        0.3498536944389343,
        1.2857428789138794,
        0.18835993111133575
      ],
      "min": [
        -0.3498537242412567,
        0.5939372777938843,
        -0.22230854630470276
      ],
      "type": "VEC3"
    },
    {
      "bufferView": 3,
      "byteOffset": 521112,
      "componentType": 5126,
      "count": 2852,
      "max": [
        0.9985362887382507,
        0.9944530129432678,
        0.9984328150749207
      ],
      "min": [
        -0.9972168207168579,
        -0.9985267519950867,
        -0.9997612237930298
      ],
      "type": "VEC3"
    },
    {
      "bufferView": 2,
      "byteOffset": 162296,
      "componentType": 5126,
      "count": 2852,
      "max": [
        0.9990234375,
        0.89892578125
      ],
      "min": [
        0.373779296875,
        0.345947265625
      ],
      "type": "VEC2"
    },
    {
      "bufferView": 1,
      "byteOffset": 285720,
      "componentType": 5125,
      "count": 10080,
      "type": "SCALAR"
    },
    {
      "bufferView": 3,
      "byteOffset": 555336,
      "componentType": 5126,
      "count": 2348,
      "max": [
        0.40466925501823425,
        1.2739945650100708,
        0.15602713823318481
      ],
      "min": [
        -0.4043421149253845,
        -0.012706993147730827,
        -0.19419370591640472
      ],
      "type": "VEC3"
    },
    {
      "bufferView": 3,
      "byteOffset": 583512,
      "componentType": 5126,
      "count": 2348,
      "max": [
        0.999100387096405,
        0.9990394115447998,
        0.9998864531517029
      ],
      "min": [
        -0.9999617338180542,
        -0.9999990463256836,
        -0.9986124634742737
      ],
      "type": "VEC3"
    },
    {
      "bufferView": 2,
      "byteOffset": 185112,
      "componentType": 5126,
      "count": 2348,
      "max": [
        0.99365234375,
        0.978515625
      ],
      "min": [
        0.007167816162109375,
        0.0020008087158203125
      ],
      "type": "VEC2"
    },
    {
      "bufferView": 1,
      "byteOffset": 326040,
      "componentType": 5125,
      "count": 11010,
      "type": "SCALAR"
    },
    {
      "bufferView": 3,
      "byteOffset": 611688,
      "componentType": 5126,
      "count": 508,
      "max": [
        0.20681419968605042,
        0.1099298968911171,
        0.15826641023159027
      ],
      "min": [
        -0.20681419968605042,
        -0.019998569041490555,
        -0.1602514684200287
      ],
      "type": "VEC3"
    },
    {
      "bufferView": 3,
      "byteOffset": 617784,
      "componentType": 5126,
      "count": 508,
      "max": [
        0.9915909767150879,
        0.9999789595603943,
        0.9620444178581238
      ],
      "min": [
        -0.9915910363197327,
        -0.9999991655349731,
        -0.9732680916786194
      ],
      "type": "VEC3"
    },
    {
      "bufferView": 2,
      "byteOffset": 203896,
      "componentType": 5126,
      "count": 508,
      "max": [
        0.9892578125,
        0.9970703125
      ],
      "min": [
        0.5869140625,
        0.85498046875
      ],
      "type": "VEC2"
    },
    {
      "bufferView": 1,
      "byteOffset": 370080,
      "componentType": 5125,
      "count": 2424,
      "type": "SCALAR"
    },
    {
      "bufferView": 3,
      "byteOffset": 623880,
      "componentType": 5126,
      "count": 5709,
      "max": [
        0.18387119472026825,
        1.91732919216156,
        0.1471143215894699
      ],
      "min": [
        -0.1817798614501953,
        1.2683303356170654,
        -0.20288701355457306
      ],
      "type": "VEC3"
    },
    {
      "bufferView": 3,
      "byteOffset": 692388,
      "componentType": 5126,
      "count": 5709,
      "max": [
        1.0,
        1.0,
        1.0
      ],
      "min": [
        -1.0,
        -1.0,
        -0.9997782111167908
      ],
      "type": "VEC3"
    },
    {
      "bufferView": 2,
      "byteOffset": 207960,
      "componentType": 5126,
      "count": 5709,
      "max": [
        0.99609375,
        0.998046875
      ],
      "min": [
        0.0017042160034179688,
        0.0020008087158203125
      ],
      "type": "VEC2"
    },
    {
      "bufferView": 1,
      "byteOffset": 379776,
      "componentType": 5125,
      "count": 29148,
      "type": "SCALAR"
    },
    {
      "bufferView": 3,
      "byteOffset": 760896,
      "componentType": 5126,
      "count": 394,
      "max": [
        0.13177688419818878,
        2.03973388671875,
        0.08653100579977036
      ],
      "min": [
        -0.12946319580078125,
        1.6505637168884277,
        -0.16185979545116425
      ],
      "type": "VEC3"
    },
    {
      "bufferView": 3,
      "byteOffset": 765624,
      "componentType": 5126,
      "count": 394,
      "max": [
        0.9872705936431885,
        0.9960591197013855,
        0.9931331276893616
      ],
      "min": [
        -0.9856582880020142,
        -0.9983487129211426,
        -0.9981378316879272
      ],
      "type": "VEC3"
    },
    {
      "bufferView": 2,
      "byteOffset": 253632,
      "componentType": 5126,
      "count": 394,
      "max": [
        0.99755859375,
        0.990234375
      ],
      "min": [
        0.69775390625,
        0.65283203125
      ],
      "type": "VEC2"
    },
    {
      "bufferView": 1,
      "byteOffset": 496368,
      "componentType": 5125,
      "count": 1872,
      "type": "SCALAR"
    },
    {
      "bufferView": 5,
      "componentType": 5126,
      "count": 157,
      "max": [
        49.99999237060547,
        0.9461922645568848,
        0.9999986290931702,
        0.0,
        0.9999998211860657,
        49.99999237060547,
        0.8803026080131531,
        0.0,
        0.9634181261062622,
        0.9822806119918823,
        50.0,
        0.0,
        1.4490889310836792,
        1.6291440725326538,
        1.4504424333572388,
        1.0
      ],
      "min": [
        -0.9659258127212524,
        -0.9911438822746277,
        -0.9634393453598022,
        0.0,
        -0.9999999403953552,
        -0.9999984502792358,
        -0.8803026080131531,
        0.0,
        -0.9634395837783813,
        -0.9822803735733032,
        -0.9973991513252258,
        0.0,
        -1.6756839752197266,
        -1.9477288722991943,
        -1.4104959964752197,
        1.0
      ],
      "type": "MAT4"
    },
    {
      "bufferView": 0,
      "componentType": 5123,
      "count": 3963,
      "type": "VEC4"
    },
    {
      "bufferView": 4,
      "componentType": 5126,
      "count": 3963,
      "max": [
        1.0,
        0.4994024932384491,
        0.3047136962413788,
        0.21256239712238312
      ],
      "min": [
        0.3100558817386627,
        0.0,
        0.0,
        0.0
      ],
      "type": "VEC4"
    },
    {
      "bufferView": 0,
      "byteOffset": 31704,
      "componentType": 5123,
      "count": 2852,
      "type": "VEC4"
    },
    {
      "bufferView": 4,
      "byteOffset": 63408,
      "componentType": 5126,
      "count": 2852,
      "max": [
        1.0,
        0.4995209574699402,
        0.3116033673286438,
        0.23070666193962097
      ],
      "min": [
        0.2601334750652313,
        0.0,
        0.0,
        0.0
      ],
      "type": "VEC4"
    },
    {
      "bufferView": 0,
      "byteOffset": 54520,
      "componentType": 5123,
      "count": 2348,
      "type": "VEC4"
    },
    {
      "bufferView": 4,
      "byteOffset": 109040,
      "componentType": 5126,
      "count": 2348,
      "max": [
        1.0,
        0.4994024932384491,
        0.2747013568878174,
        0.15107853710651398
      ],
      "min": [
        0.3240129351615906,
        0.0,
        0.0,
        0.0
      ],
      "type": "VEC4"
    },
    {
      "bufferView": 0,
      "byteOffset": 73304,
      "componentType": 5123,
      "count": 508,
      "type": "VEC4"
    },
    {
      "bufferView": 4,
      "byteOffset": 146608,
      "componentType": 5126,
      "count": 508,
      "max": [
        1.0,
        0.4955787658691406,
        0.05228625237941742,
        0.0
      ],
      "min": [
        0.5044212341308594,
        0.0,
        0.0,
        0.0
      ],
      "type": "VEC4"
    },
    {
      "bufferView": 0,
      "byteOffset": 77368,
      "componentType": 5123,
      "count": 5709,
      "type": "VEC4"
    },
    {
      "bufferView": 4,
      "byteOffset": 154736,
      "componentType": 5126,
      "count": 5709,
      "max": [
        1.0,
        0.49973443150520325,
        0.3083316385746002,
        0.1252882331609726
      ],
      "min": [
        0.35999998450279236,
        0.0,
        0.0,
        0.0
      ],
      "type": "VEC4"
    },
    {
      "bufferView": 0,
      "byteOffset": 123040,
      "componentType": 5123,
      "count": 394,
      "type": "VEC4"
    },
    {
      "bufferView": 4,
      "byteOffset": 246080,
      "componentType": 5126,
      "count": 394,
      "max": [
        1.0,
        0.5,
        0.2744176983833313,
        0.0
      ],
      "min": [
        0.4467634856700897,
        0.0,
        0.0,
        0.0
      ],
      "type": "VEC4"
    }
  ],
  "asset": {
    "extras": {
      "author": "DayTimeShows (https://sketchfab.com/DayTimeShows)",
      "license": "CC-BY-4.0 (http://creativecommons.org/licenses/by/4.0/)",
      "source": "https://sketchfab.com/3d-models/the-grinch-681ee7d46a6148abbe714e87dd60e35c",
      "title": "The Grinch"
    },
    "generator": "Sketchfab-16.95.0",
    "version": "2.0"
  },
  "bufferViews": [
    {
      "buffer": 0,
      "byteLength": 126192,
      "byteStride": 8,
      "name": "shortBufferViews",
      "target": 34962
    },
    {
      "buffer": 0,
      "byteLength": 503856,
      "byteOffset": 126192,
      "name": "floatBufferViews",
      "target": 34963
    },
    {
      "buffer": 0,
      "byteLength": 256784,
      "byteOffset": 630048,
      "byteStride": 8,
      "name": "floatBufferViews",
      "target": 34962
    },
    {
      "buffer": 0,
      "byteLength": 770352,
      "byteOffset": 886832,
      "byteStride": 12,
      "name": "floatBufferViews",
      "target": 34962
    },
    {
      "buffer": 0,
      "byteLength": 252384,
      "byteOffset": 1657184,
      "byteStride": 16,
      "name": "floatBufferViews",
      "target": 34962
    },
    {
      "buffer": 0,
      "byteLength": 10048,
      "byteOffset": 1909568,
      "name": "floatBufferViews"
    }
  ],
  "buffers": [
    {
      "byteLength": 1919616,
      "uri": "scene.bin"
    }
  ],
  "images": [
    {
      "uri": "textures/Add-ons_baseColor.png"
    },
    {
      "uri": "textures/Grinch_Fur_Rim_Texture_Mask_Color_baseColor.png"
    }
  ],
  "materials": [
    {
      "doubleSided": true,
      "name": "Add-ons",
      "pbrMetallicRoughness": {
        "baseColorTexture": {
          "index": 0
        },
        "metallicFactor": 0.0,
        "roughnessFactor": 0.7885257473118872
      }
    },
    {
      "doubleSided": true,
      "name": "Grinch_Fur_Rim_Texture_Mask_Color",
      "pbrMetallicRoughness": {
        "baseColorTexture": {
          "index": 1
        },
        "metallicFactor": 0.0,
        "roughnessFactor": 0.7885257473118872
      }
    }
  ],
  "meshes": [
    {
      "name": "Jetpack Lvl01_Add-ons_0",
      "primitives": [
        {
          "attributes": {
            "NORMAL": 1,
            "POSITION": 0,
            "TEXCOORD_0": 2
          },
          "indices": 3,
          "material": 0,
          "mode": 4
        }
      ]
    },
    {
      "name": "Jetpack Lvl02_Add-ons_0",
      "primitives": [
        {
          "attributes": {
            "NORMAL": 5,
            "POSITION": 4,
            "TEXCOORD_0": 6
          },
          "indices": 7,
          "material": 0,
          "mode": 4
        }
      ]
    },
    {
      "name": "Jetpack Lvl03_Add-ons_0",
      "primitives": [
        {
          "attributes": {
            "NORMAL": 9,
            "POSITION": 8,
            "TEXCOORD_0": 10
          },
          "indices": 11,
          "material": 0,
          "mode": 4
        }
      ]
    },
    {
      "name": "Grinch:Body_Normal_Grinch Fur Rim Texture Mask Color_0",
      "primitives": [
        {
          "attributes": {
            "JOINTS_0": 37,
            "NORMAL": 13,
            "POSITION": 12,
            "TEXCOORD_0": 14,
            "WEIGHTS_0": 38
          },
          "indices": 15,
          "material": 1,
          "mode": 4
        }
      ]
    },
    {
      "name": "Grinch:Abrigo_Add-ons_0",
      "primitives": [
        {
          "attributes": {
            "JOINTS_0": 39,
            "NORMAL": 17,
            "POSITION": 16,
            "TEXCOORD_0": 18,
            "WEIGHTS_0": 40
          },
          "indices": 19,
          "material": 0,
          "mode": 4
        }
      ]
    },
    {
      "name": "Grinch:Body_Santa_Grinch Fur Rim Texture Mask Color_0",
      "primitives": [
        {
          "attributes": {
            "JOINTS_0": 41,
            "NORMAL": 21,
            "POSITION": 20,
            "TEXCOORD_0": 22,
            "WEIGHTS_0": 42
          },
          "indices": 23,
          "material": 1,
          "mode": 4
        }
      ]
    },
    {
      "name": "Grinch:Zapatillas_Add-ons_0",
      "primitives": [
        {
          "attributes": {
            "JOINTS_0": 43,
            "NORMAL": 25,
            "POSITION": 24,
            "TEXCOORD_0": 26,
            "WEIGHTS_0": 44
          },
          "indices": 27,
          "material": 0,
          "mode": 4
        }
      ]
    },
    {
      "name": "Grinch:Face_Grinch Fur Rim Texture Mask Color_0",
      "primitives": [
        {
          "attributes": {
            "JOINTS_0": 45,
            "NORMAL": 29,
            "POSITION": 28,
            "TEXCOORD_0": 30,
            "WEIGHTS_0": 46
          },
          "indices": 31,
          "material": 1,
          "mode": 4
        }
      ]
    },
    {
      "name": "Grinch:Sombrero_Add-ons_0",
      "primitives": [
        {
          "attributes": {
            "JOINTS_0": 47,
            "NORMAL": 33,
            "POSITION": 32,
            "TEXCOORD_0": 34,
            "WEIGHTS_0": 48
          },
          "indices": 35,
          "material": 0,
          "mode": 4
        }
      ]
    }
  ],
  "nodes": [
    {
      "children": [
        1
      ],
      "matrix": [
        1.0,
        0.0,
        0.0,
        0.0,
        0.0,
        2.220446049250313e-16,
        -1.0,
        0.0,
        0.0,
        1.0,
        2.220446049250313e-16,
        0.0,
        0.0,
        0.0,
        0.0,
        1.0
      ],
      "name": "Sketchfab_model"
    },
    {
      "children": [
        2
      ],
      "matrix": [
        0.009999999776482582,
        0.0,
        0.0,
        0.0,
        0.0,
        0.0,
        0.009999999776482582,
        0.0,
        0.0,
        -0.009999999776482582,
        0.0,
        0.0,
        0.0,
        0.0,
        0.0,
        1.0
      ],
      "name": "grinch santa outfit.fbx"
    },
    {
      "children": [
        3
      ],
      "name": "RootNode"
    },
    {
      "children": [
        4
      ],
      "matrix": [
        50.0,
        0.0,
        0.0,
        0.0,
        0.0,
        49.99999999999933,
        8.146033536604557e-06,
        0.0,
        0.0,
        -8.146033536604557e-06,
        49.99999999999933,
        0.0,
        0.0,
        0.0,
        0.0,
        1.0
      ],
      "name": "Armature"
    },
    {
      "children": [
        5,
        169,
        171,
        173,
        175,
        177,
        179,
        168,
        170,
        172,
        174,
        176,
        178
      ],
      "name": "Object_4"
    },
    {
      "children": [
        6
      ],
      "name": "_rootJoint"
    },
    {
      "children": [
        7
      ],
      "name": "Grinch@Base (merge)_02"
    },
    {
      "children": [
        8,
        9
      ],
      "name": "Grinch@Base_03",
      "rotation": [
        2.6469779601696886e-23,
        0.0,
        0.0,
        1.0
      ]
    },
    {
      "name": "Grinch:Addons_04",
      "rotation": [
        2.1855694143368964e-08,
        0.0,
        0.0,
        1.0
      ]
    },
    {
      "children": [
        10,
        164
      ],
      "name": "Grinch:rig_05",
      "rotation": [
        2.1855715459651037e-08,
        0.0,
        0.0,
        1.0
      ]
    },
    {
      "children": [
        11
      ],
      "name": "Grinch:jnt_org_06",
      "rotation": [
        -2.1316282072803006e-14,
        -0.0,
        0.0,
        1.0
      ],
      "translation": [
        0.0,
        -9.313225746154785e-09,
        4.163336342344337e-16
      ]
    },
    {
      "children": [
        12
      ],
      "name": "Grinch:global_C0_jnt_org_07"
    },
    {
      "children": [
        13
      ],
      "name": "Grinch:global_C0_0_jnt_08",
      "rotation": [
        1.3234891378570253e-23,
        0.0,
        0.0,
        1.0
      ],
      "scale": [
        1.0,
        0.9999999403953552,
        1.0
      ]
    },
    {
      "children": [
        14,
        22,
        30
      ],
      "name": "Grinch:spine_C0_0_jnt_09",
      "rotation": [
        -1.3234889800848443e-23,
        -0.0,
        0.0,
        1.0
      ],
      "translation": [
        -1.9063008949160576e-08,
        0.6417511701583862,
        -0.019897492602467537
      ]
    },
    {
      "children": [
        15
      ],
      "name": "Grinch:leg_L0_0_jnt_010",
      "rotation": [
        0.4198838770389557,
        -0.3685625493526459,
        -0.5567482709884644,
        0.6147280335426331
      ],
      "scale": [
        0.9999998807907104,
        0.9999998807907104,
        1.0
      ],
      "translation": [
        0.06551045924425125,
        -0.023954572156071663,
        -0.013224090449512005
      ]
    },
    {
      "children": [
        16
      ],
      "name": "Grinch:leg_L0_1_jnt_011",
      "rotation": [
        -1.0128132998943329e-08,
        5.6228600442409515e-08,
        -2.3257452994585037e-06,
        1.0
      ],
      "translation": [
        0.16230379045009613,
        -3.939494490623474e-07,
        1.30385160446167e-08
      ]
    },
    {
      "children": [
        17
      ],
      "name": "Grinch:leg_L0_2_jnt_012",
      "rotation": [
        7.929202894274567e-08,
        5.597279596258886e-06,
        -0.12812083959579468,
        0.9917585849761963
      ],
      "scale": [
        0.9999996423721313,
        0.9999997615814209,
        0.9999998211860657
      ],
      "translation": [
        0.16340571641921997,
        -0.00012018438428640366,
        6.51925802230835e-09
      ]
    },
    {
      "children": [
        18
      ],
      "name": "Grinch:leg_L0_3_jnt_013",
      "rotation": [
        5.676409955412964e-07,
        -2.720392785704462e-06,
        -0.00012062620226060972,
        1.0
      ],
      "scale": [
        1.0000003576278687,
        1.000000238418579,
        1.0000001192092896
      ],
      "translation": [
        0.11592207103967667,
        -2.6814639568328857e-05,
        3.632158041000366e-07
      ]
    },
    {
      "children": [
        19
      ],
      "name": "Grinch:leg_L0_4_jnt_014",
      "rotation": [
        3.80445271730423e-07,
        -2.9074493795633316e-05,
        5.848909495398402e-05,
        1.0
      ],
      "translation": [
        0.11173228174448013,
        1.905485987663269e-06,
        1.0957010090351105e-06
      ]
    },
    {
      "children": [
        20
      ],
      "name": "Grinch:leg_L0_end_jnt_015",
      "rotation": [
        0.006069168448448181,
        -0.05261797830462456,
        0.11431761085987091,
        0.9920312762260437
      ],
      "scale": [
        0.9999995827674866,
        0.9999995231628418,
        0.9999998807907104
      ],
      "translation": [
        0.0046555656008422375,
        5.513429641723633e-07,
        2.621673047542572e-07
      ]
    },
    {
      "children": [
        21
      ],
      "name": "Grinch:foot_L0_0_jnt_016",
      "rotation": [
        0.040694285184144974,
        -0.04138641431927681,
        0.7054350972175598,
        0.7063939571380615
      ],
      "scale": [
        1.0000001192092896,
        1.000000238418579,
        1.0000003576278687
      ],
      "translation": [
        0.06553564965724945,
        0.14166012406349182,
        0.016597069799900055
      ]
    },
    {
      "name": "Grinch:foot_L0_1_jnt_017",
      "rotation": [
        1.0601070243865252e-08,
        -7.428867299097419e-09,
        2.9103830456733704e-11,
        1.0
      ],
      "scale": [
        1.0,
        1.0000001192092896,
        0.9999998807907104
      ],
      "translation": [
        0.04426712542772293,
        -1.156731741502881e-07,
        -5.363926902646199e-08
      ]
    },
    {
      "children": [
        23
      ],
      "name": "Grinch:leg_R0_0_jnt_018",
      "rotation": [
        0.6147282123565674,
        0.5567482113838196,
        -0.3685624897480011,
        -0.41988396644592285
      ],
      "scale": [
        1.0,
        1.0000001192092896,
        1.0000001192092896
      ],
      "translation": [
        -0.06551043689250946,
        -0.023954512551426888,
        -0.013224082998931408
      ]
    },
    {
      "children": [
        24
      ],
      "name": "Grinch:leg_R0_1_jnt_019",
      "rotation": [
        -3.544846549630165e-08,
        -6.228219717741013e-08,
        -2.323184162378311e-06,
        1.0
      ],
      "translation": [
        -0.16230371594429016,
        4.023313522338867e-07,
        7.450580596923828e-09
      ]
    },
    {
      "children": [
        25
      ],
      "name": "Grinch:leg_R0_2_jnt_020",
      "rotation": [
        6.64974280084607e-08,
        5.715247880289098e-06,
        -0.12812094390392303,
        0.9917585253715515
      ],
      "scale": [
        0.9999999403953552,
        0.9999998807907104,
        0.9999998807907104
      ],
      "translation": [
        -0.1634056717157364,
        0.0001201629638671875,
        -1.862645149230957e-09
      ]
    },
    {
      "children": [
        26
      ],
      "name": "Grinch:leg_R0_3_jnt_021",
      "rotation": [
        6.137415766716003e-07,
        -2.7790667900262633e-06,
        -0.00012046159827150404,
        1.0
      ],
      "scale": [
        1.0000001192092896,
        1.0000003576278687,
        0.9999997615814209
      ],
      "translation": [
        -0.11592231690883636,
        2.6747584342956543e-05,
        -4.246830940246582e-07
      ]
    },
    {
      "children": [
        27
      ],
      "name": "Grinch:leg_R0_4_jnt_022",
      "rotation": [
        1.8347056141010398e-07,
        -2.892967313528061e-05,
        5.9228335885563865e-05,
        1.0
      ],
      "scale": [
        1.0,
        0.9999998807907104,
        1.0
      ],
      "translation": [
        -0.11173219233751297,
        -1.8868595361709595e-06,
        -1.0649673640727997e-06
      ]
    },
    {
      "children": [
        28
      ],
      "name": "Grinch:leg_R0_end_jnt_023",
      "rotation": [
        0.006069341208785772,
        -0.05261809751391411,
        0.11431683599948883,
        0.9920313358306885
      ],
      "scale": [
        1.0,
        0.9999995231628418,
        1.000000238418579
      ],
      "translation": [
        -0.004655492026358843,
        -5.476176738739014e-07,
        -2.4726614356040955e-07
      ]
    },
    {
      "children": [
        29
      ],
      "name": "Grinch:foot_R0_0_jnt_024",
      "rotation": [
        0.04069386422634125,
        -0.04138607904314995,
        0.7054352164268494,
        0.7063938975334167
      ],
      "scale": [
        0.9999998211860657,
        1.0,
        0.9999995231628418
      ],
      "translation": [
        -0.06553571671247482,
        -0.14166007936000824,
        -0.01659703254699707
      ]
    },
    {
      "name": "Grinch:foot_R0_1_jnt_025",
      "rotation": [
        -1.0521034710109234e-08,
        -4.111226735403761e-05,
        -1.6830017557367682e-07,
        1.0
      ],
      "scale": [
        1.0,
        1.0,
        1.0000001192092896
      ],
      "translation": [
        -0.04426712542772293,
        8.214556146413088e-08,
        -7.615881258971058e-09
      ]
    },
    {
      "children": [
        31
      ],
      "name": "Grinch:spine_C0_1_jnt_026",
      "rotation": [
        -2.679874100408597e-09,
        -0.0,
        0.0,
        1.0
      ],
      "translation": [
        0.0,
        0.1457037329673767,
        -8.931309025683731e-10
      ]
    },
    {
      "children": [
        32
      ],
      "name": "Grinch:spine_C0_2_jnt_027",
      "rotation": [
        -3.481659405224491e-13,
        -0.0,
        0.0,
        1.0
      ],
      "translation": [
        0.0,
        0.14570271968841553,
        -3.978612994615105e-10
      ]
    },
    {
      "children": [
        33,
        95,
        118,
        141
      ],
      "name": "Grinch:spine_C0_3_jnt_028",
      "rotation": [
        3.282750959954228e-09,
        0.0,
        0.0,
        1.0
      ],
      "translation": [
        1.9063008949160576e-08,
        0.14570528268814087,
        -2.4626638150948565e-07
      ]
    },
    {
      "children": [
        34
      ],
      "name": "Grinch:neck_C0_0_jnt_029",
      "rotation": [
        -5.5892375172561515e-09,
        -0.0,
        0.0,
        1.0
      ],
      "translation": [
        0.0,
        0.16715538501739502,
        -8.734701850698912e-11
      ]
    },
    {
      "children": [
        35
      ],
      "name": "Grinch:neck_C0_1_jnt_030",
      "rotation": [
        1.7763568394002505e-15,
        0.0,
        0.0,
        1.0
      ],
      "translation": [
        0.0,
        0.05520915985107422,
        8.02721444870258e-10
      ]
    },
    {
      "children": [
        36
      ],
      "name": "Grinch:neck_C0_2_jnt_031",
      "rotation": [
        -1.6868984431539502e-08,
        -0.0,
        0.0,
        1.0
      ],
      "translation": [
        -4.6103833747025994e-18,
        0.05520915985107422,
        8.027143394429004e-10
      ]
    },
    {
      "children": [
        37,
        38,
        39,
        40,
        41,
        44,
        47,
        50,
        53,
        56,
        57,
        58,
        60,
        62,
        63,
        64,
        76,
        82,
        83,
        84,
        85,
        86,
        91,
        93
      ],
      "name": "Grinch:neck_C0_head_jnt_032",
      "rotation": [
        2.0313679627292913e-08,
        0.0,
        0.0,
        1.0
      ],
      "translation": [
        4.6103833747025994e-18,
        2.384185791015625e-07,
        -3.469446951953614e-18
      ]
    },
    {
      "name": "Grinch:eye_L0_eye_jnt_033",
      "rotation": [
        1.3234889800848443e-23,
        0.0,
        0.0,
        1.0
      ],
      "translation": [
        0.0311739444732666,
        0.23891890048980713,
        0.041484832763671875
      ]
    },
    {
      "name": "Grinch:eye_L0_eyeOver_jnt_034",
      "rotation": [
        1.3234889800848443e-23,
        0.0,
        0.0,
        1.0
      ],
      "translation": [
        0.031174151226878166,
        0.23891901969909668,
        0.04148485139012337
      ]
    },
    {
      "name": "Grinch:eye_R0_eye_jnt_035",
      "rotation": [
        1.3234889800848443e-23,
        0.0,
        0.0,
        1.0
      ],
      "translation": [
        -0.03103184700012207,
        0.23891890048980713,
        0.04148530960083008
      ]
    },
    {
      "name": "Grinch:eye_R0_eyeOver_jnt_036",
      "rotation": [
        1.3234889800848443e-23,
        0.0,
        0.0,
        1.0
      ],
      "translation": [
        -0.031031843274831772,
        0.23891890048980713,
        0.04148498922586441
      ]
    },
    {
      "children": [
        42
      ],
      "name": "Grinch:hair_00_C0_0_jnt_037",
      "rotation": [
        0.7616347074508667,
        0.6037439107894897,
        -0.18445998430252075,
        -0.14622022211551666
      ],
      "scale": [
        1.0,
        1.000000238418579,
        0.9999998211860657
      ],
      "translation": [
        0.020720066502690315,
        0.3609274625778198,
        0.025265857577323914
      ]
    },
    {
      "children": [
        43
      ],
      "name": "Grinch:hair_00_C0_1_jnt_038",
      "rotation": [
        -0.19048000872135162,
        0.10468342155218124,
        0.3916216194629669,
        0.8940868377685547
      ],
      "scale": [
        0.9999998807907104,
        0.9999998211860657,
        1.0
      ],
      "translation": [
        0.0772307962179184,
        1.3039680197834969e-06,
        -5.61592230496899e-07
      ]
    },
    {
      "name": "Grinch:hair_00_C0_2_jnt_039",
      "rotation": [
        -0.22459633648395538,
        0.024088576436042786,
        0.7298210859298706,
        0.6452421545982361
      ],
      "scale": [
        0.9999999403953552,
        1.0000001192092896,
        0.9999998211860657
      ],
      "translation": [
        0.0437798798084259,
        -3.304739948362112e-07,
        1.126900315284729e-07
      ]
    },
    {
      "children": [
        45
      ],
      "name": "Grinch:hair_01_C0_0_jnt_040",
      "rotation": [
        0.8096483945846558,
        0.5785746574401855,
        0.0791284441947937,
        -0.058819737285375595
      ],
      "scale": [
        0.9999999403953552,
        1.0,
        1.0
      ],
      "translation": [
        -0.021817022934556007,
        0.3602135181427002,
        0.019735896959900856
      ]
    },
    {
      "children": [
        46
      ],
      "name": "Grinch:hair_01_C0_1_jnt_041",
      "rotation": [
        -0.16917186975479126,
        0.12263593077659607,
        0.34997883439064026,
        0.9131573438644409
      ],
      "scale": [
        1.0,
        1.000000238418579,
        1.0000001192092896
      ],
      "translation": [
        0.11274780333042145,
        7.502530934289098e-07,
        -2.4243490770459175e-07
      ]
    },
    {
      "name": "Grinch:hair_01_C0_2_jnt_042",
      "rotation": [
        -0.32229238748550415,
        -0.07782794535160065,
        0.5516456365585327,
        0.765347957611084
      ],
      "scale": [
        1.0,
        0.9999999403953552,
        0.9999998211860657
      ],
      "translation": [
        0.039394281804561615,
        2.8638169169425964e-08,
        7.450580596923828e-08
      ]
    },
    {
      "children": [
        48
      ],
      "name": "Grinch:hair_02_C0_0_jnt_043",
      "rotation": [
        0.4392249286174774,
        0.31739723682403564,
        0.681195855140686,
        0.4922526478767395
      ],
      "scale": [
        1.0,
        1.0000001192092896,
        1.000000238418579
      ],
      "translation": [
        -0.02961048297584057,
        0.36013293266296387,
        -0.0370577797293663
      ]
    },
    {
      "children": [
        49
      ],
      "name": "Grinch:hair_02_C0_1_jnt_044",
      "rotation": [
        0.07175683230161667,
        -0.25207170844078064,
        0.10729498416185379,
        0.959061324596405
      ],
      "scale": [
        0.9999998807907104,
        0.9999998211860657,
        0.9999998807907104
      ],
      "translation": [
        0.12139718979597092,
        -3.781169652938843e-07,
        4.568569806906453e-07
      ]
    },
    {
      "name": "Grinch:hair_02_C0_2_jnt_045",
      "rotation": [
        0.6442598104476929,
        0.013087406754493713,
        0.3638269305229187,
        0.6725979447364807
      ],
      "scale": [
        1.000000238418579,
        1.0000003576278687,
        1.0000001192092896
      ],
      "translation": [
        0.07450292259454727,
        -2.0256265997886658e-07,
        -7.41216354072094e-07
      ]
    },
    {
      "children": [
        51
      ],
      "name": "Grinch:hair_03_C0_0_jnt_046",
      "rotation": [
        -0.09906957298517227,
        -0.06400574743747711,
        0.8340864181518555,
        0.5388769507408142
      ],
      "scale": [
        1.0,
        0.9999999403953552,
        1.0
      ],
      "translation": [
        0.004231271333992481,
        0.3708384037017822,
        -0.04795699566602707
      ]
    },
    {
      "children": [
        52
      ],
      "name": "Grinch:hair_03_C0_1_jnt_047",
      "rotation": [
        0.007556195370852947,
        -0.08739218860864639,
        0.058529481291770935,
        0.9944243431091309
      ],
      "scale": [
        1.0,
        1.0000001192092896,
        1.0
      ],
      "translation": [
        0.09342754632234573,
        -4.246830940246582e-07,
        2.2821851075605082e-08
      ]
    },
    {
      "name": "Grinch:hair_03_C0_2_jnt_048",
      "rotation": [
        -0.22345229983329773,
        -0.04125450551509857,
        -0.375313401222229,
        0.8986139297485352
      ],
      "scale": [
        0.9999998211860657,
        1.0,
        0.9999999403953552
      ],
      "translation": [
        0.0627049058675766,
        -6.984919309616089e-08,
        -4.544854164123535e-07
      ]
    },
    {
      "children": [
        54
      ],
      "name": "Grinch:hair_04_C0_0_jnt_049",
      "rotation": [
        -0.3184727728366852,
        -0.2391817718744278,
        0.7334470152854919,
        0.55083829164505
      ],
      "scale": [
        0.9999999403953552,
        1.0000001192092896,
        1.0000001192092896
      ],
      "translation": [
        0.03356117010116577,
        0.37557947635650635,
        -0.018435189500451088
      ]
    },
    {
      "children": [
        55
      ],
      "name": "Grinch:hair_04_C0_1_jnt_050",
      "rotation": [
        0.03642865642905235,
        0.2516707479953766,
        -0.057838257402181625,
        0.9653960466384888
      ],
      "scale": [
        1.000000238418579,
        0.9999998807907104,
        1.0
      ],
      "translation": [
        0.06748455762863159,
        -1.4062970876693726e-07,
        -3.061627751321794e-07
      ]
    },
    {
      "name": "Grinch:hair_04_C0_2_jnt_051",
      "rotation": [
        -0.6499756574630737,
        -0.010576157830655575,
        0.6932119131088257,
        0.311250776052475
      ],
      "scale": [
        1.0,
        0.9999998807907104,
        0.9999996423721313
      ],
      "translation": [
        0.06258158385753632,
        4.0978193283081055e-07,
        -3.166496753692627e-08
      ]
    },
    {
      "name": "Grinch:left_eyebrow_L0_0_jnt_052",
      "rotation": [
        -0.05629347637295723,
        0.12920677661895752,
        0.3954349160194397,
        0.9076166152954102
      ],
      "scale": [
        1.0000001192092896,
        1.0,
        0.9999999403953552
      ],
      "translation": [
        0.012646731920540333,
        0.25822198390960693,
        0.09947797656059265
      ]
    },
    {
      "name": "Grinch:left_eyebrow_R0_0_jnt_053",
      "rotation": [
        0.3954348564147949,
        0.9076166749000549,
        -0.056293435394763947,
        0.12920637428760529
      ],
      "scale": [
        1.0,
        1.000000238418579,
        0.9999999403953552
      ],
      "translation": [
        -0.012647386640310287,
        0.2582221031188965,
        0.09947757422924042
      ]
    },
    {
      "children": [
        59
      ],
      "name": "Grinch:lowerEyelash_L0_0_jnt_054",
      "rotation": [
        -0.09965396672487259,
        0.8605849146842957,
        -0.4922971725463867,
        -0.08429843187332153
      ],
      "scale": [
        1.0,
        1.0000003576278687,
        1.0000001192092896
      ],
      "translation": [
        0.03118876926600933,
        0.23892486095428467,
        0.0415562205016613
      ]
    },
    {
      "name": "Grinch:lowereyeShape_L0_0_jnt_055",
      "rotation": [
        -0.09965422004461288,
        0.8605850338935852,
        -0.49229711294174194,
        0.08429832756519318
      ],
      "scale": [
        0.9999999403953552,
        1.0000003576278687,
        1.0
      ],
      "translation": [
        5.21540641784668e-08,
        -0.054603271186351776,
        4.370231181383133e-07
      ]
    },
    {
      "children": [
        61
      ],
      "name": "Grinch:lowerEyelash_R0_0_jnt_056",
      "rotation": [
        0.8605850338935852,
        -0.0996536836028099,
        0.08429799973964691,
        0.49229705333709717
      ],
      "scale": [
        0.9999998211860657,
        0.9999998211860657,
        1.0000001192092896
      ],
      "translation": [
        -0.031189600005745888,
        0.23892474174499512,
        0.041555680334568024
      ]
    },
    {
      "name": "Grinch:lowereyeShape_R0_0_jnt_057",
      "rotation": [
        0.86058509349823,
        -0.09965357929468155,
        0.08429790288209915,
        -0.4922972023487091
      ],
      "scale": [
        1.0,
        0.9999999403953552,
        1.0
      ],
      "translation": [
        5.830079317092896e-07,
        0.05460306257009506,
        1.1820811778306961e-06
      ]
    },
    {
      "name": "Grinch:middle_eyebrow_L0_0_jnt_058",
      "rotation": [
        -0.007588981185108423,
        0.22620703279972076,
        0.1723683625459671,
        0.9586771726608276
      ],
      "scale": [
        1.0,
        1.0000001192092896,
        1.0000001192092896
      ],
      "translation": [
        0.032125383615493774,
        0.2766841650009155,
        0.08810453861951828
      ]
    },
    {
      "name": "Grinch:middle_eyebrow_R0_0_jnt_059",
      "rotation": [
        0.1723683774471283,
        0.958677351474762,
        -0.007588949054479599,
        0.22620674967765808
      ],
      "scale": [
        1.0,
        0.9999998807907104,
        0.9999999403953552
      ],
      "translation": [
        -0.03212471678853035,
        0.2766839265823364,
        0.08810464292764664
      ]
    },
    {
      "children": [
        65,
        66,
        67,
        68,
        69,
        71,
        72
      ],
      "name": "Grinch:mouth_C0_jaw_jnt_060",
      "rotation": [
        1.3234889800848443e-23,
        0.0,
        0.0,
        1.0
      ],
      "translation": [
        0.0,
        0.12675213813781738,
        -0.04026317968964577
      ]
    },
    {
      "name": "Grinch:helperTeeth_low_C0_0_jnt_061",
      "rotation": [
        -1.3234889800848443e-23,
        -0.0,
        0.0,
        1.0
      ],
      "translation": [
        0.0,
        -0.05650472640991211,
        0.08233642578125
      ]
    },
    {
      "name": "Grinch:helperTeeth_up_C0_0_jnt_062",
      "rotation": [
        -1.3234889800848443e-23,
        -0.0,
        0.0,
        1.0
      ],
      "translation": [
        0.0,
        0.0534827746450901,
        0.1533370018005371
      ]
    },
    {
      "name": "Grinch:lowerLip_C0_root_L0_root_L0_0_jnt_063",
      "rotation": [
        0.12304152548313141,
        0.3057200014591217,
        0.1748514622449875,
        0.927805483341217
      ],
      "scale": [
        1.0,
        0.9999997615814209,
        1.0
      ],
      "translation": [
        0.08248981088399887,
        -0.03244566544890404,
        0.15937216579914093
      ]
    },
    {
      "name": "Grinch:lowerLip_C0_root_R0_root_R0_0_jnt_064",
      "rotation": [
        0.1748514175415039,
        0.927805483341217,
        0.12304157763719559,
        0.3057200014591217
      ],
      "scale": [
        0.9999999403953552,
        0.9999995827674866,
        0.9999999403953552
      ],
      "translation": [
        -0.08248938620090485,
        -0.03244602307677269,
        0.15937303006649017
      ]
    },
    {
      "children": [
        70
      ],
      "name": "Grinch:mouth_C0_liplow_jnt_065",
      "rotation": [
        -1.3234889800848443e-23,
        -0.0,
        0.0,
        1.0
      ],
      "translation": [
        3.0279159545898438e-05,
        -0.06310748308897018,
        0.18343307077884674
      ]
    },
    {
      "name": "Grinch:lowerLip_middle_C0_root_C0_0_jnt_066",
      "rotation": [
        -2.0313679627292913e-08,
        -0.0,
        0.0,
        1.0
      ],
      "translation": [
        0.0,
        0.007165198680013418,
        1.6193837382161291e-09
      ]
    },
    {
      "name": "Grinch:mouth_C0_teethlow_jnt_067",
      "rotation": [
        -4.864778446744822e-08,
        -0.0,
        0.0,
        1.0
      ],
      "translation": [
        3.0279159545898438e-05,
        -0.06310748308897018,
        0.18343307077884674
      ]
    },
    {
      "children": [
        73
      ],
      "name": "Grinch:tongue_C0_0_jnt_068",
      "rotation": [
        0.6892707943916321,
        -0.15781494975090027,
        0.6892713308334351,
        -0.15781448781490326
      ],
      "scale": [
        1.0,
        1.0,
        1.0000011920928955
      ],
      "translation": [
        0.0016649137251079082,
        0.05254554748535156,
        0.02233223058283329
      ]
    },
    {
      "children": [
        74
      ],
      "name": "Grinch:tongue_C0_1_jnt_069",
      "rotation": [
        1.7333652735374017e-08,
        1.1138250322062504e-08,
        -0.02918325550854206,
        0.9995740652084351
      ],
      "scale": [
        1.0000001192092896,
        0.9999998807907104,
        1.0
      ],
      "translation": [
        0.02979779988527298,
        -2.6421429311085376e-07,
        -6.828192766761276e-08
      ]
    },
    {
      "children": [
        75
      ],
      "name": "Grinch:tongue_C0_2_jnt_070",
      "rotation": [
        -2.040790869628495e-09,
        -1.3629505524193064e-08,
        0.044532082974910736,
        0.9990079402923584
      ],
      "scale": [
        0.9999998807907104,
        1.0,
        1.0
      ],
      "translation": [
        0.043648652732372284,
        5.9500443683191406e-08,
        -6.42070645540116e-08
      ]
    },
    {
      "name": "Grinch:tongue_C0_3_jnt_071",
      "rotation": [
        3.3347629102564724e-09,
        -8.424132857953737e-08,
        0.11307062953710556,
        0.9935869574546814
      ],
      "scale": [
        1.0000001192092896,
        1.0,
        0.9999999403953552
      ],
      "translation": [
        0.04364937171339989,
        6.545757287312881e-07,
        -1.3038437884915766e-07
      ]
    },
    {
      "children": [
        77,
        78,
        79,
        80,
        81
      ],
      "name": "Grinch:mouth_C0_lipup_jnt_072",
      "rotation": [
        1.3234889800848443e-23,
        0.0,
        0.0,
        1.0
      ],
      "translation": [
        0.0,
        0.09295821934938431,
        0.1570117324590683
      ]
    },
    {
      "name": "Grinch:Corner_L0_0_jnt_073",
      "rotation": [
        0.17243848741054535,
        0.4655608534812927,
        0.3015008270740509,
        0.8140119910240173
      ],
      "scale": [
        0.9999999403953552,
        0.9999999403953552,
        1.0
      ],
      "translation": [
        0.11138098686933517,
        0.05917728319764137,
        -0.06849541515111923
      ]
    },
    {
      "name": "Grinch:Corner_R0_0_jnt_074",
      "rotation": [
        0.30150076746940613,
        0.8140118718147278,
        0.17243839800357819,
        0.4655609130859375
      ],
      "scale": [
        0.9999997615814209,
        0.9999997615814209,
        1.0
      ],
      "translation": [
        -0.11138090491294861,
        0.059177521616220474,
        -0.06849566102027893
      ]
    },
    {
      "name": "Grinch:upperLip_C0_root_L0_0_jnt_075",
      "rotation": [
        0.1567755937576294,
        0.3713286519050598,
        0.14943045377731323,
        0.9028881192207336
      ],
      "scale": [
        0.9999998807907104,
        0.9999998807907104,
        0.9999999403953552
      ],
      "translation": [
        0.07610855251550674,
        0.01986408792436123,
        -0.019380152225494385
      ]
    },
    {
      "name": "Grinch:upperLip_C0_root_R0_0_jnt_076",
      "rotation": [
        0.14943049848079681,
        0.9028881192207336,
        0.15677563846111298,
        0.3713286221027374
      ],
      "scale": [
        1.0,
        1.0000001192092896,
        1.0000001192092896
      ],
      "translation": [
        -0.07610786706209183,
        0.01986420713365078,
        -0.019379854202270508
      ]
    },
    {
      "name": "Grinch:upperLip_middle_C0_0_jnt_077",
      "rotation": [
        -2.0313679627292913e-08,
        -0.0,
        0.0,
        1.0
      ],
      "translation": [
        0.0,
        5.57058310590719e-09,
        7.195559703632171e-10
      ]
    },
    {
      "name": "Grinch:mouth_C0_teethup_jnt_078",
      "rotation": [
        2.708490853819967e-08,
        0.0,
        0.0,
        1.0
      ],
      "translation": [
        0.0,
        0.09295821934938431,
        0.1570117324590683
      ]
    },
    {
      "name": "Grinch:Nose_C0_0_jnt_079",
      "rotation": [
        1.3542452492742996e-08,
        0.0,
        0.0,
        1.0
      ],
      "translation": [
        -4.673004150390625e-05,
        0.21856367588043213,
        0.1153419092297554
      ]
    },
    {
      "name": "Grinch:rigth_eyebrow_L0_0_jnt_080",
      "rotation": [
        0.04503241926431656,
        0.27530911564826965,
        0.12303487956523895,
        0.9523862600326538
      ],
      "scale": [
        0.9999999403953552,
        0.9999998807907104,
        0.9999998807907104
      ],
      "translation": [
        0.055456314235925674,
        0.2925834655761719,
        0.0709017962217331
      ]
    },
    {
      "name": "Grinch:rigth_eyebrow_R0_0_jnt_081",
      "rotation": [
        0.12303482741117477,
        0.9523863792419434,
        0.04503247141838074,
        0.2753087282180786
      ],
      "scale": [
        0.9999998211860657,
        0.9999996423721313,
        0.9999997615814209
      ],
      "translation": [
        -0.055455803871154785,
        0.2925832271575928,
        0.07090220600366592
      ]
    },
    {
      "children": [
        87
      ],
      "name": "Grinch:santaHat_jnt_01_082",
      "rotation": [
        -0.04085196554660797,
        -0.0,
        0.0,
        0.9991652369499207
      ],
      "translation": [
        7.87549652159214e-07,
        0.31160402297973633,
        -0.01318464707583189
      ]
    },
    {
      "children": [
        88
      ],
      "name": "Grinch:santaHat_jnt_02_083",
      "rotation": [
        -0.005039094481617212,
        -2.1070061114684263e-13,
        3.447918970778119e-06,
        0.9999873042106628
      ],
      "translation": [
        -2.3948132366058417e-10,
        0.051847055554389954,
        -2.60770320892334e-08
      ]
    },
    {
      "children": [
        89
      ],
      "name": "Grinch:santaHat_jnt_03_084",
      "rotation": [
        -0.007019107695668936,
        3.352315980365006e-09,
        -4.775507136400847e-07,
        0.9999753832817078
      ],
      "scale": [
        1.0,
        1.000000238418579,
        1.000000238418579
      ],
      "translation": [
        3.001758841492119e-10,
        0.06329211592674255,
        -1.3783575525394554e-07
      ]
    },
    {
      "children": [
        90
      ],
      "name": "Grinch:santaHat_jnt_04_085",
      "rotation": [
        0.01656126230955124,
        -2.7886823709619146e-13,
        -2.9705097404075786e-06,
        0.9998628497123718
      ],
      "scale": [
        1.0,
        0.9999998807907104,
        0.9999998807907104
      ],
      "translation": [
        -1.2894574297206418e-11,
        0.07891546189785004,
        1.7136336794010276e-07
      ]
    },
    {
      "name": "Grinch:santaHat_jnt_05_086",
      "rotation": [
        7.450581485102248e-09,
        1.3903982132301707e-13,
        -1.293201114770104e-13,
        1.0
      ],
      "scale": [
        1.0,
        0.9999999403953552,
        0.9999999403953552
      ],
      "translation": [
        -1.1633238816699532e-10,
        0.08769576996564865,
        -3.725288078015865e-09
      ]
    },
    {
      "children": [
        92
      ],
      "name": "Grinch:upperEyelash_L0_0_jnt_087",
      "rotation": [
        -0.010857503861188889,
        0.9566318988800049,
        0.26041969656944275,
        -0.13007353246212006
      ],
      "scale": [
        0.9999998807907104,
        0.9999997019767761,
        0.9999999403953552
      ],
      "translation": [
        0.031190210953354836,
        0.23892474174499512,
        0.04155600816011429
      ]
    },
    {
      "name": "Grinch:uppereyeShape_L0_0_jnt_088",
      "rotation": [
        -0.010857961140573025,
        0.9566318988800049,
        0.2604195475578308,
        0.13007377088069916
      ],
      "scale": [
        1.0000001192092896,
        0.9999996423721313,
        0.9999999403953552
      ],
      "translation": [
        -0.014132283627986908,
        0.052742037922143936,
        -2.1792948246002197e-07
      ]
    },
    {
      "children": [
        94
      ],
      "name": "Grinch:upperEyelash_R0_0_jnt_00",
      "rotation": [
        0.9566322565078735,
        -0.010857661254703999,
        0.1300736963748932,
        -0.2604186534881592
      ],
      "scale": [
        0.9999998807907104,
        1.0000001192092896,
        1.0000005960464478
      ],
      "translation": [
        -0.031190145760774612,
        0.23892486095428467,
        0.041556283831596375
      ]
    },
    {
      "name": "Grinch:uppereyeShape_R0_0_jnt_01",
      "rotation": [
        -0.13008518517017365,
        0.2604280412197113,
        0.9566280841827393,
        0.010852818377315998
      ],
      "scale": [
        0.9999999403953552,
        1.0000004768371582,
        1.000001072883606
      ],
      "translation": [
        -0.014131960459053516,
        -0.052741639316082,
        -4.98257577419281e-07
      ]
    },
    {
      "children": [
        96
      ],
      "name": "Grinch:shoulder_L0_shoulder_jnt_089",
      "rotation": [
        -0.7024843096733093,
        0.01843295991420746,
        0.35375040769577026,
        0.6172816753387451
      ],
      "scale": [
        1.0,
        0.9999998807907104,
        0.9999998807907104
      ],
      "translation": [
        0.011122624389827251,
        0.053565267473459244,
        0.06148288771510124
      ]
    },
    {
      "children": [
        97
      ],
      "name": "Grinch:arm_L0_0_jnt_090",
      "rotation": [
        0.17881232500076294,
        0.6884438395500183,
        -0.10223399102687836,
        0.6954275369644165
      ],
      "scale": [
        1.0,
        1.0000003576278687,
        1.0
      ],
      "translation": [
        0.114715076982975,
        5.185231566429138e-05,
        -0.0004958155332133174
      ]
    },
    {
      "children": [
        98
      ],
      "name": "Grinch:arm_L0_1_jnt_091",
      "rotation": [
        -9.313225746154785e-08,
        -5.122274160385132e-08,
        -3.3956021070480347e-06,
        1.0
      ],
      "translation": [
        0.12421051412820816,
        -4.209578037261963e-07,
        3.725290298461914e-08
      ]
    },
    {
      "children": [
        99
      ],
      "name": "Grinch:arm_L0_2_jnt_092",
      "rotation": [
        -6.189398391143186e-06,
        4.14646865465329e-06,
        -0.13330663740634918,
        0.9910748600959778
      ],
      "scale": [
        0.9999998807907104,
        0.9999996423721313,
        1.0000001192092896
      ],
      "translation": [
        0.12508992850780487,
        -0.00010626018047332764,
        -2.6542693376541138e-08
      ]
    },
    {
      "children": [
        100
      ],
      "name": "Grinch:arm_L0_3_jnt_093",
      "rotation": [
        -0.000765588425565511,
        -1.5064147191878874e-06,
        -0.00015843431174289435,
        0.9999997019767761
      ],
      "scale": [
        1.0,
        0.9999998807907104,
        0.9999999403953552
      ],
      "translation": [
        0.09826759994029999,
        -2.901628613471985e-05,
        1.6624107956886292e-07
      ]
    },
    {
      "children": [
        101
      ],
      "name": "Grinch:arm_L0_4_jnt_094",
      "rotation": [
        0.0007110600708983839,
        -1.6445295841549523e-05,
        -3.4277330996701494e-05,
        0.9999997615814209
      ],
      "scale": [
        1.0000001192092896,
        1.0000001192092896,
        1.0000004768371582
      ],
      "translation": [
        0.09471605718135834,
        -1.2423843145370483e-06,
        4.139728844165802e-07
      ]
    },
    {
      "children": [
        102
      ],
      "name": "Grinch:arm_L0_end_jnt_095",
      "rotation": [
        -0.001237792312167585,
        -0.02661806531250477,
        -0.048652999103069305,
        0.9984602332115173
      ],
      "scale": [
        1.0000001192092896,
        0.9999999403953552,
        0.9999997019767761
      ],
      "translation": [
        0.003946330398321152,
        -2.4586915969848633e-07,
        2.3189932107925415e-07
      ]
    },
    {
      "children": [
        103,
        106,
        114,
        117
      ],
      "name": "Grinch:meta_L0_0_jnt_096",
      "rotation": [
        0.5106579661369324,
        0.4848121106624603,
        0.5343393683433533,
        0.46761852502822876
      ],
      "scale": [
        1.0,
        1.0000001192092896,
        0.9999999403953552
      ],
      "translation": [
        0.034180108457803726,
        -0.0188329815864563,
        0.003476666286587715
      ]
    },
    {
      "children": [
        104
      ],
      "name": "Grinch:finger_L0_0_jnt_097",
      "rotation": [
        0.5930876731872559,
        -0.010751212015748024,
        0.7750228047370911,
        -0.21787910163402557
      ],
      "scale": [
        0.9999998211860657,
        1.000000238418579,
        0.9999998211860657
      ],
      "translation": [
        -0.00997191108763218,
        -0.01438774261623621,
        0.07494350522756577
      ]
    },
    {
      "children": [
        105
      ],
      "name": "Grinch:finger_L0_1_jnt_098",
      "rotation": [
        0.00041540409438312054,
        -0.012879915535449982,
        0.028544211760163307,
        0.9995094537734985
      ],
      "scale": [
        0.9999998807907104,
        0.9999999403953552,
        1.0000001192092896
      ],
      "translation": [
        0.055985890328884125,
        -5.587935447692871e-08,
        1.1175870895385742e-08
      ]
    },
    {
      "name": "Grinch:finger_L0_2_jnt_099",
      "rotation": [
        -0.0026515841018408537,
        0.001909653889015317,
        -0.08943474292755127,
        0.9959874153137207
      ],
      "scale": [
        1.0,
        0.9999999403953552,
        1.0
      ],
      "translation": [
        0.03533342853188515,
        -8.381903171539307e-08,
        7.82310962677002e-08
      ]
    },
    {
      "children": [
        107,
        110
      ],
      "name": "Grinch:meta_L0_1_jnt_0100",
      "rotation": [
        -3.4924596548080444e-09,
        -1.2991949915885925e-07,
        -4.377216100692749e-08,
        1.0
      ],
      "translation": [
        0.015562230721116066,
        -7.334165275096893e-09,
        1.3620592653751373e-08
      ]
    },
    {
      "children": [
        108
      ],
      "name": "Grinch:finger_L1_0_jnt_0101",
      "rotation": [
        0.672118067741394,
        0.00025771924993023276,
        0.7218173146247864,
        -0.1650363802909851
      ],
      "scale": [
        1.0000009536743164,
        1.0000001192092896,
        1.0000007152557373
      ],
      "translation": [
        0.0014685718342661858,
        -0.007835278287529945,
        0.07953578978776932
      ]
    },
    {
      "children": [
        109
      ],
      "name": "Grinch:finger_L1_1_jnt_0102",
      "rotation": [
        0.0027968045324087143,
        -0.017455464228987694,
        0.10720465332269669,
        0.9940798282623291
      ],
      "scale": [
        0.9999999403953552,
        0.9999997615814209,
        0.9999997615814209
      ],
      "translation": [
        0.05951547622680664,
        -4.563480615615845e-08,
        2.0116567611694336e-07
      ]
    },
    {
      "name": "Grinch:finger_L1_2_jnt_0103",
      "rotation": [
        -0.011640193872153759,
        -0.012316296808421612,
        -0.15047074854373932,
        0.9884691834449768
      ],
      "scale": [
        0.9999997019767761,
        1.000000238418579,
        1.000000238418579
      ],
      "translation": [
        0.040790166705846786,
        -1.3737007975578308e-07,
        1.0244548320770264e-07
      ]
    },
    {
      "children": [
        111
      ],
      "name": "Grinch:meta_L0_2_jnt_0104",
      "rotation": [
        -1.6367994248867035e-07,
        2.0954759705205106e-08,
        1.0244548320770264e-08,
        1.0
      ],
      "scale": [
        0.9999999403953552,
        1.0000001192092896,
        1.0
      ],
      "translation": [
        0.015562241896986961,
        1.1175870895385742e-08,
        -2.514570951461792e-08
      ]
    },
    {
      "children": [
        112
      ],
      "name": "Grinch:finger_L2_0_jnt_0105",
      "rotation": [
        0.7356539964675903,
        -0.07174336165189743,
        0.6634647846221924,
        -0.11610615998506546
      ],
      "scale": [
        0.9999999403953552,
        1.0000004768371582,
        1.0000015497207642
      ],
      "translation": [
        0.013189418241381645,
        -0.00486145680770278,
        0.07654650509357452
      ]
    },
    {
      "children": [
        113
      ],
      "name": "Grinch:finger_L2_1_jnt_0106",
      "rotation": [
        -5.247073886494036e-07,
        -1.2505057611633674e-06,
        0.0922059416770935,
        0.9957400560379028
      ],
      "scale": [
        0.9999999403953552,
        0.9999996423721313,
        1.000000238418579
      ],
      "translation": [
        0.05337105691432953,
        8.195638656616211e-08,
        1.6763806343078613e-08
      ]
    },
    {
      "name": "Grinch:finger_L2_2_jnt_0107",
      "rotation": [
        3.841572890905809e-07,
        9.553137942930334e-07,
        -0.16974124312400818,
        0.9854886531829834
      ],
      "scale": [
        0.9999997019767761,
        1.000000238418579,
        0.9999998807907104
      ],
      "translation": [
        0.035340845584869385,
        -1.0419171303510666e-08,
        -8.102506399154663e-08
      ]
    },
    {
      "children": [
        115
      ],
      "name": "Grinch:thumb_L0_0_jnt_0108",
      "rotation": [
        0.500808835029602,
        -0.06982939690351486,
        0.8507871627807617,
        -0.1430930346250534
      ],
      "scale": [
        0.9999989867210388,
        1.0,
        0.9999980926513672
      ],
      "translation": [
        -0.014270317740738392,
        -0.02363734133541584,
        0.010928943753242493
      ]
    },
    {
      "children": [
        116
      ],
      "name": "Grinch:thumb_L0_1_jnt_0109",
      "rotation": [
        -2.4226750383604667e-07,
        -0.03194405883550644,
        1.1554293877225064e-07,
        0.9994896650314331
      ],
      "scale": [
        1.0000003576278687,
        1.0000001192092896,
        1.0
      ],
      "translation": [
        0.03015068545937538,
        7.729977369308472e-08,
        1.0058283805847168e-07
      ]
    },
    {
      "name": "Grinch:thumb_L0_2_jnt_0110",
      "rotation": [
        0.004992523696273565,
        0.13239161670207977,
        -0.03832202032208443,
        0.9904438257217407
      ],
      "scale": [
        0.9999998807907104,
        1.0000001192092896,
        1.0
      ],
      "translation": [
        0.031072616577148438,
        3.259629011154175e-08,
        -2.123415470123291e-07
      ]
    },
    {
      "name": "ropeConnection_0111",
      "rotation": [
        3.702007234096527e-08,
        -6.658956408500671e-08,
        -7.171183824539185e-08,
        1.0
      ],
      "translation": [
        0.01999998651444912,
        -0.04900001361966133,
        0.05400006100535393
      ]
    },
    {
      "children": [
        119
      ],
      "name": "Grinch:shoulder_R0_shoulder_jnt_0112",
      "rotation": [
        0.6172816753387451,
        -0.3537505269050598,
        0.01843295805156231,
        0.7024843692779541
      ],
      "scale": [
        0.9999999403953552,
        1.0,
        0.9999998807907104
      ],
      "translation": [
        -0.011122691445052624,
        0.053565386682748795,
        0.06148284301161766
      ]
    },
    {
      "children": [
        120
      ],
      "name": "Grinch:arm_R0_0_jnt_0113",
      "rotation": [
        0.1788124293088913,
        0.6884438395500183,
        -0.10223409533500671,
        0.6954275965690613
      ],
      "scale": [
        1.000000238418579,
        1.0,
        0.9999998211860657
      ],
      "translation": [
        -0.11471495777368546,
        -5.1851384341716766e-05,
        0.0004961611703038216
      ]
    },
    {
      "children": [
        121
      ],
      "name": "Grinch:arm_R0_1_jnt_0114",
      "rotation": [
        -2.1420420992512845e-08,
        -4.656613428188905e-10,
        -3.3946710118470946e-06,
        1.0
      ],
      "scale": [
        1.0,
        0.9999999403953552,
        1.0
      ],
      "translation": [
        -0.12421056628227234,
        3.650784492492676e-07,
        -8.288770914077759e-08
      ]
    },
    {
      "children": [
        122
      ],
      "name": "Grinch:arm_R0_2_jnt_0115",
      "rotation": [
        -6.25517623120686e-06,
        4.273799277143553e-06,
        -0.13330668210983276,
        0.9910748600959778
      ],
      "scale": [
        0.9999997615814209,
        1.0000001192092896,
        1.000000238418579
      ],
      "translation": [
        -0.12508998811244965,
        0.00010633096098899841,
        -1.6298145055770874e-08
      ]
    },
    {
      "children": [
        123
      ],
      "name": "Grinch:arm_R0_3_jnt_0116",
      "rotation": [
        -0.0007653975626453757,
        -1.5678822364861844e-06,
        -0.00015817867824807763,
        0.9999997019767761
      ],
      "scale": [
        0.9999999403953552,
        0.9999998807907104,
        0.9999997019767761
      ],
      "translation": [
        -0.0982675552368164,
        2.8821639716625214e-05,
        -7.543712854385376e-08
      ]
    },
    {
      "children": [
        124
      ],
      "name": "Grinch:arm_R0_4_jnt_0117",
      "rotation": [
        0.0007108311983756721,
        -1.7488842786406167e-05,
        -3.465870759100653e-05,
        0.9999997615814209
      ],
      "scale": [
        1.0000001192092896,
        1.0000001192092896,
        1.0000001192092896
      ],
      "translation": [
        -0.09471569955348969,
        1.3746321201324463e-06,
        -5.781184881925583e-07
      ]
    },
    {
      "children": [
        125
      ],
      "name": "Grinch:arm_R0_end_jnt_0118",
      "rotation": [
        -0.0012374981306493282,
        -0.02661692537367344,
        -0.048653047531843185,
        0.9984603524208069
      ],
      "scale": [
        0.9999998211860657,
        0.9999998211860657,
        0.9999997615814209
      ],
      "translation": [
        -0.0039464933797717094,
        2.905726432800293e-07,
        -2.852175384759903e-07
      ]
    },
    {
      "children": [
        126,
        129,
        137,
        140
      ],
      "name": "Grinch:meta_R0_0_jnt_0119",
      "rotation": [
        0.510657548904419,
        0.48481228947639465,
        0.534339427947998,
        0.4676187038421631
      ],
      "scale": [
        0.9999998807907104,
        0.9999998807907104,
        1.0
      ],
      "translation": [
        -0.0341801643371582,
        0.01883295178413391,
        -0.0034766271710395813
      ]
    },
    {
      "children": [
        127
      ],
      "name": "Grinch:finger_R0_0_jnt_0120",
      "rotation": [
        0.5930872559547424,
        -0.01075110211968422,
        0.7750229835510254,
        -0.21787907183170319
      ],
      "scale": [
        1.0000001192092896,
        1.0000001192092896,
        1.0000003576278687
      ],
      "translation": [
        0.00997183658182621,
        0.014387858100235462,
        -0.07494338601827621
      ]
    },
    {
      "children": [
        128
      ],
      "name": "Grinch:finger_R0_1_jnt_0121",
      "rotation": [
        0.00041536515345796943,
        -0.012881201691925526,
        0.028545239940285683,
        0.9995095133781433
      ],
      "scale": [
        0.9999998807907104,
        0.9999999403953552,
        0.9999998211860657
      ],
      "translation": [
        -0.055985938757658005,
        -4.284083843231201e-08,
        -1.4901161193847656e-08
      ]
    },
    {
      "name": "Grinch:finger_R0_2_jnt_0122",
      "rotation": [
        -0.0026518884114921093,
        0.0019109483109787107,
        -0.08943557739257813,
        0.9959872364997864
      ],
      "scale": [
        0.9999998807907104,
        0.9999997615814209,
        0.9999996423721313
      ],
      "translation": [
        -0.03533327579498291,
        1.2293457984924316e-07,
        1.4901161193847656e-08
      ]
    },
    {
      "children": [
        130,
        133
      ],
      "name": "Grinch:meta_R0_1_jnt_0123",
      "rotation": [
        -2.8638169169425964e-08,
        5.122274160385132e-09,
        7.450580596923828e-09,
        1.0
      ],
      "translation": [
        -0.015562223270535469,
        2.805609256029129e-08,
        3.562308847904205e-08
      ]
    },
    {
      "children": [
        131
      ],
      "name": "Grinch:finger_R1_0_jnt_0124",
      "rotation": [
        0.6721177101135254,
        0.0002582971646916121,
        0.7218168377876282,
        -0.16504041850566864
      ],
      "scale": [
        1.0,
        1.0,
        1.000000238418579
      ],
      "translation": [
        -0.0014686384238302708,
        0.007835296913981438,
        -0.07953597605228424
      ]
    },
    {
      "children": [
        132
      ],
      "name": "Grinch:finger_R1_1_jnt_0125",
      "rotation": [
        0.002797746565192938,
        -0.01745525375008583,
        0.10720501095056534,
        0.9940797686576843
      ],
      "scale": [
        1.0,
        1.0,
        0.9999999403953552
      ],
      "translation": [
        -0.05951547622680664,
        7.078051567077637e-08,
        3.818422555923462e-08
      ]
    },
    {
      "name": "Grinch:finger_R1_2_jnt_0126",
      "rotation": [
        -0.0116413664072752,
        -0.0123169906437397,
        -0.15047100186347961,
        0.988469123840332
      ],
      "scale": [
        0.9999995827674866,
        1.0,
        0.9999998807907104
      ],
      "translation": [
        -0.04079023748636246,
        -1.1129304766654968e-07,
        -5.681067705154419e-08
      ]
    },
    {
      "children": [
        134
      ],
      "name": "Grinch:meta_R0_2_jnt_0127",
      "rotation": [
        2.9103830456733704e-07,
        1.4901161193847656e-08,
        -7.078051567077637e-08,
        1.0
      ],
      "translation": [
        -0.01556221954524517,
        3.8067810237407684e-08,
        -2.3283064365386963e-08
      ]
    },
    {
      "children": [
        135
      ],
      "name": "Grinch:finger_R2_0_jnt_0128",
      "rotation": [
        0.7356531620025635,
        -0.07174256443977356,
        0.6634660959243774,
        -0.1161041185259819
      ],
      "scale": [
        1.0,
        1.0000001192092896,
        1.0000053644180298
      ],
      "translation": [
        -0.013189446181058884,
        0.004861324094235897,
        -0.07654649764299393
      ]
    },
    {
      "children": [
        136
      ],
      "name": "Grinch:finger_R2_1_jnt_0129",
      "rotation": [
        -9.025714575727761e-08,
        -1.0019478224876366e-07,
        0.09220606833696365,
        0.9957400560379028
      ],
      "scale": [
        0.9999999403953552,
        0.9999998807907104,
        1.0
      ],
      "translation": [
        -0.05337098240852356,
        -2.1595042198896408e-07,
        -9.778887033462524e-08
      ]
    },
    {
      "name": "Grinch:finger_R2_2_jnt_0130",
      "rotation": [
        1.1789329334987997e-07,
        1.3608523374841752e-07,
        -0.1697414517402649,
        0.9854886531829834
      ],
      "scale": [
        0.9999999403953552,
        1.0,
        1.0
      ],
      "translation": [
        -0.035341016948223114,
        5.9371814131736755e-08,
        -6.426125764846802e-08
      ]
    },
    {
      "children": [
        138
      ],
      "name": "Grinch:thumb_R0_0_jnt_0131",
      "rotation": [
        0.5008086562156677,
        -0.06982976198196411,
        0.8507872223854065,
        -0.1430930644273758
      ],
      "scale": [
        0.9999992251396179,
        0.9999999403953552,
        0.9999984502792358
      ],
      "translation": [
        0.014270385727286339,
        0.023637378588318825,
        -0.010929172858595848
      ]
    },
    {
      "children": [
        139
      ],
      "name": "Grinch:thumb_R0_1_jnt_0132",
      "rotation": [
        -1.2486091804930766e-07,
        -0.03194379806518555,
        2.03131975240467e-07,
        0.9994896650314331
      ],
      "scale": [
        0.9999998807907104,
        1.0000001192092896,
        1.0000001192092896
      ],
      "translation": [
        -0.03015059046447277,
        -1.2712553143501282e-07,
        1.601874828338623e-07
      ]
    },
    {
      "name": "Grinch:thumb_R0_2_jnt_0133",
      "rotation": [
        0.004992509260773659,
        0.13239158689975739,
        -0.03832243010401726,
        0.9904438257217407
      ],
      "scale": [
        1.000000238418579,
        0.9999995231628418,
        0.9999999403953552
      ],
      "translation": [
        -0.031072527170181274,
        6.798654794692993e-08,
        -2.60770320892334e-08
      ]
    },
    {
      "name": "ropeConnection.001_0134",
      "rotation": [
        5.3551044487676336e-08,
        3.426080188543174e-17,
        -1.0244547432591844e-08,
        1.0
      ],
      "scale": [
        1.0000001192092896,
        1.0,
        1.0000001192092896
      ],
      "translation": [
        -0.0009999936446547508,
        0.05700007453560829,
        -0.057999979704618454
      ]
    },
    {
      "children": [
        142,
        149
      ],
      "name": "JetpackLink_0135",
      "rotation": [
        0.17364811897277832,
        0.0,
        0.0,
        0.9848077893257141
      ],
      "translation": [
        0.0,
        -8.937337536707446e-10,
        -2.9899638320785016e-11
      ]
    },
    {
      "children": [
        143,
        145,
        147
      ],
      "name": "Jetpack_0136",
      "rotation": [
        -0.17295174300670624,
        -0.0,
        0.0,
        0.9849303960800171
      ],
      "scale": [
        1.0,
        1.0000001192092896,
        1.0
      ],
      "translation": [
        0.006000000052154064,
        -1.0270003080368042,
        0.3610000014305115
      ]
    },
    {
      "children": [
        144
      ],
      "matrix": [
        0.9999999999999847,
        -1.5407393785284162e-14,
        1.7484558156866025e-07,
        0.0,
        1.7484558156865543e-07,
        -1.6292067939183141e-07,
        -0.9999999999999717,
        0.0,
        4.38933547013788e-14,
        0.999999999999987,
        -1.6292067939183141e-07,
        0.0,
        0.0,
        2.384185791015625e-07,
        -3.725290298461914e-09,
        1.0
      ],
      "name": "Jetpack Lvl01"
    },
    {
      "mesh": 0,
      "name": "Jetpack Lvl01_Add-ons_0"
    },
    {
      "children": [
        146
      ],
      "matrix": [
        0.9999999999999847,
        -1.5407393785284162e-14,
        1.7484558156866025e-07,
        0.0,
        1.7484558156865543e-07,
        -1.6292067939183141e-07,
        -0.9999999999999717,
        0.0,
        4.38933547013788e-14,
        0.999999999999987,
        -1.6292067939183141e-07,
        0.0,
        4.889443516731262e-08,
        1.0405731201171875,
        -0.09213156998157501,
        1.0
      ],
      "name": "Jetpack Lvl02"
    },
    {
      "mesh": 1,
      "name": "Jetpack Lvl02_Add-ons_0"
    },
    {
      "children": [
        148
      ],
      "matrix": [
        0.9999999999999847,
        1.473838173931941e-14,
        1.748455957795149e-07,
        0.0,
        1.7484559577951501e-07,
        -1.6292067939183141e-07,
        -0.9999999999999717,
        0.0,
        1.3747581492880942e-14,
        0.999999999999987,
        -1.6292067939183141e-07,
        0.0,
        4.889443516731262e-08,
        1.0405731201171875,
        -0.09213156998157501,
        1.0
      ],
      "name": "Jetpack Lvl03"
    },
    {
      "mesh": 2,
      "name": "Jetpack Lvl03_Add-ons_0"
    },
    {
      "children": [
        150
      ],
      "name": "PS_VFXHandler_JetEngineFire2_SingleLarge_0137",
      "rotation": [
        0.6792497038841248,
        0.0,
        0.0,
        0.7339072227478027
      ],
      "translation": [
        0.008999999612569809,
        -0.24100011587142944,
        -0.21100011467933655
      ]
    },
    {
      "children": [
        151,
        152,
        153,
        154,
        155,
        156,
        157,
        158,
        159,
        160,
        161,
        162,
        163
      ],
      "name": "surrounding fire_0138",
      "rotation": [
        5.268338210129286e-09,
        0.7071062326431274,
        -5.268329328345089e-09,
        0.7071073651313782
      ],
      "scale": [
        0.9999998807907104,
        0.9999997019767761,
        0.9999999403953552
      ],
      "translation": [
        0.0,
        -2.9802322387695313e-08,
        -0.02759995311498642
      ]
    },
    {
      "name": "surrounding fire2_0139",
      "rotation": [
        1.4827602909262146e-15,
        -3.2418695505853634e-10,
        -1.4901161193847656e-08,
        1.0
      ],
      "translation": [
        -5.999804386647156e-08,
        2.9802322387695313e-08,
        2.8886137926065203e-10
      ]
    },
    {
      "name": "surrounding fire3_0140",
      "rotation": [
        1.4827602909262146e-15,
        -3.2418695505853634e-10,
        -1.4901161193847656e-08,
        1.0
      ],
      "translation": [
        -5.999804386647156e-08,
        2.9802322387695313e-08,
        2.8886137926065203e-10
      ]
    },
    {
      "name": "mid fire_0141",
      "rotation": [
        1.4827602909262146e-15,
        -3.2418695505853634e-10,
        -1.4901161193847656e-08,
        1.0
      ],
      "translation": [
        -5.999804386647156e-08,
        2.9802322387695313e-08,
        2.8886137926065203e-10
      ]
    },
    {
      "name": "mid fire (1)_0142",
      "rotation": [
        -4.5837906224605734e-14,
        8.694178710300093e-11,
        9.238719940185547e-07,
        1.0
      ],
      "translation": [
        0.06899990886449814,
        8.940696716308594e-08,
        5.109783707268889e-10
      ]
    },
    {
      "name": "Particles_0143",
      "rotation": [
        1.4827602909262146e-15,
        -3.2418695505853634e-10,
        -1.4901161193847656e-08,
        1.0
      ],
      "translation": [
        -5.999804386647156e-08,
        2.9802322387695313e-08,
        2.8886137926065203e-10
      ]
    },
    {
      "name": "purple glow_0144",
      "rotation": [
        2.4515008689718343e-08,
        1.6666470870063677e-08,
        -0.7071064710617065,
        0.7071071267127991
      ],
      "scale": [
        1.0,
        1.0000001192092896,
        1.0
      ],
      "translation": [
        -0.049600109457969666,
        1.4432899320127035e-15,
        -1.6580958828171788e-11
      ]
    },
    {
      "name": "blueandpurpleglow_0145",
      "rotation": [
        4.87224616798872e-15,
        -3.241874546588974e-10,
        1.5795211035592196e-24,
        1.0
      ],
      "translation": [
        -0.11400008946657181,
        -7.450580596923828e-08,
        -3.7626790572176105e-11
      ]
    },
    {
      "name": "rings_0146",
      "rotation": [
        2.4515010466075182e-08,
        1.6666470870063677e-08,
        -0.7071064710617065,
        0.7071071267127991
      ],
      "scale": [
        1.0,
        1.0000001192092896,
        1.0
      ],
      "translation": [
        -5.999804386647156e-08,
        2.9802322387695313e-08,
        2.8886137926065203e-10
      ]
    },
    {
      "name": "rings (2)_0147",
      "rotation": [
        2.446410185541481e-08,
        1.6717381257080888e-08,
        -0.7071064710617065,
        0.7071071267127991
      ],
      "scale": [
        1.0,
        1.0000001192092896,
        1.0
      ],
      "translation": [
        0.0009999718749895692,
        2.9802322387695313e-08,
        -9.999949543271214e-05
      ]
    },
    {
      "name": "surrounding fire (1) Start_0148",
      "rotation": [
        1.4827602909262146e-15,
        -3.2418695505853634e-10,
        -1.4901161193847656e-08,
        1.0
      ],
      "translation": [
        -5.999804386647156e-08,
        2.9802322387695313e-08,
        2.8886137926065203e-10
      ]
    },
    {
      "name": "surrounding fire2 Start_0149",
      "rotation": [
        1.4827602909262146e-15,
        -3.2418695505853634e-10,
        -1.4901161193847656e-08,
        1.0
      ],
      "translation": [
        -5.999804386647156e-08,
        2.9802322387695313e-08,
        2.8886137926065203e-10
      ]
    },
    {
      "name": "surrounding fire3 Start_0150",
      "rotation": [
        1.4827602909262146e-15,
        -3.2418695505853634e-10,
        -1.4901161193847656e-08,
        1.0
      ],
      "translation": [
        -5.999804386647156e-08,
        2.9802322387695313e-08,
        2.8886137926065203e-10
      ]
    },
    {
      "name": "Particle System_0151",
      "rotation": [
        1.6305927275084287e-08,
        -3.241841795009748e-10,
        -2.5331974029541016e-07,
        1.0
      ],
      "translation": [
        -0.13740020990371704,
        -0.0019000768661499023,
        0.00800000224262476
      ]
    },
    {
      "children": [
        165
      ],
      "name": "Grinch:world_ctl_0152",
      "rotation": [
        -2.1316282072803006e-14,
        -0.0,
        0.0,
        1.0
      ],
      "translation": [
        0.0,
        -9.313225746154785e-09,
        4.163336342344337e-16
      ]
    },
    {
      "children": [
        166
      ],
      "name": "Grinch:global_C0_root_0153"
    },
    {
      "children": [
        167
      ],
      "name": "Grinch:global_C0_ik_cns_0154"
    },
    {
      "name": "Grinch:global_C0_ctl_0155"
    },
    {
      "matrix": [
        49.99999403953552,
        -1.117586879335368e-06,
        -7.450582417704148e-07,
        0.0,
        1.117586997945204e-06,
        49.99999403953554,
        7.959768420080819e-06,
        0.0,
        7.450581526735917e-07,
        -7.959769385612621e-06,
        50.00000000000003,
        0.0,
        0.00817696563899517,
        32.12064217135092,
        -0.646622507817704,
        1.0
      ],
      "name": "Object_168"
    },
    {
      "mesh": 3,
      "name": "Object_169",
      "skin": 0
    },
    {
      "matrix": [
        50.0,
        -7.334165350962742e-07,
        4.6566006466498357e-08,
        0.0,
        7.33416525081096e-07,
        49.999999999999574,
        1.075373711501017e-05,
        0.0,
        -4.656616420587026e-08,
        -1.0753737114327128e-05,
        49.999999999999595,
        0.0,
        -8.309143595397472e-07,
        48.05303238913117,
        -1.4075843560090475,
        1.0
      ],
      "name": "Object_170"
    },
    {
      "mesh": 4,
      "name": "Object_171",
      "skin": 0
    },
    {
      "matrix": [
        50.0,
        6.069268216257405e-14,
        -3.725290298461914e-07,
        0.0,
        1.6653345369377455e-14,
        49.99999999999963,
        1.0381208085163918e-05,
        0.0,
        3.72529029846201e-07,
        -1.038120808516391e-05,
        49.999999999999595,
        0.0,
        0.008178269490599632,
        31.531947956530054,
        -0.646622557162036,
        1.0
      ],
      "name": "Object_172"
    },
    {
      "mesh": 5,
      "name": "Object_173",
      "skin": 0
    },
    {
      "matrix": [
        50.0,
        -2.9103151942626753e-09,
        -4.164689930997576e-07,
        0.0,
        2.9104012633004048e-09,
        49.999999999999645,
        1.033318676491035e-05,
        0.0,
        4.1646899249829807e-07,
        -1.033318676493459e-05,
        49.999999999999645,
        0.0,
        1.4915713109076023e-08,
        -7.2759520520458366e-09,
        -3.414015855320524e-08,
        1.0
      ],
      "name": "Object_174"
    },
    {
      "mesh": 6,
      "name": "Object_175",
      "skin": 0
    },
    {
      "matrix": [
        50.0,
        1.3655853486579158e-13,
        -8.381903171539308e-07,
        0.0,
        3.1225022567582906e-14,
        49.999999999999694,
        1.0008679055317744e-05,
        0.0,
        8.381903171539526e-07,
        -1.0008679055317737e-05,
        49.99999999999967,
        0.0,
        -199.5219349861145,
        47.61516197811495,
        125.34710944588282,
        1.0
      ],
      "name": "Object_176"
    },
    {
      "mesh": 7,
      "name": "Object_177",
      "skin": 0
    },
    {
      "matrix": [
        50.0,
        3.012720000587713e-15,
        4.165343859512879e-14,
        0.0,
        -3.0127286488479615e-15,
        49.99999999999963,
        1.038120808516396e-05,
        0.0,
        -4.165343796961502e-14,
        -1.038120808516396e-05,
        49.99999999999963,
        0.0,
        0.049379823030903935,
        92.38178761053278,
        -1.905347257121927,
        1.0
      ],
      "name": "Object_178"
    },
    {
      "mesh": 8,
      "name": "Object_179",
      "skin": 0
    }
  ],
  "samplers": [
    {
      "magFilter": 9729,
      "minFilter": 9987,
      "wrapS": 10497,
      "wrapT": 10497
    }
  ],
  "scene": 0,
  "scenes": [
    {
      "name": "Sketchfab_Scene",
      "nodes": [
        0
      ]
    }
  ],
  "skins": [
    {
      "inverseBindMatrices": 36,
      "joints": [
        5,
        6,
        7,
        8,
        9,
        10,
        11,
        12,
        13,
        14,
        15,
        16,
        17,
        18,
        19,
        20,
        21,
        22,
        23,
        24,
        25,
        26,
        27,
        28,
        29,
        30,
        31,
        32,
        33,
        34,
        35,
        36,
        37,
        38,
        39,
        40,
        41,
        42,
        43,
        44,
        45,
        46,
        47,
        48,
        49,
        50,
        51,
        52,
        53,
        54,
        55,
        56,
        57,
        58,
        59,
        60,
        61,
        62,
        63,
        64,
        65,
        66,
        67,
        68,
        69,
        70,
        71,
        72,
        73,
        74,
        75,
        76,
        77,
        78,
        79,
        80,
        81,
        82,
        83,
        84,
        85,
        86,
        87,
        88,
        89,
        90,
        91,
        92,
        93,
        94,
        95,
        96,
        97,
        98,
        99,
        100,
        101,
        102,
        103,
        104,
        105,
        106,
        107,
        108,
        109,
        110,
        111,
        112,
        113,
        114,
        115,
        116,
        117,
        118,
        119,
        120,
        121,
        122,
        123,
        124,
        125,
        126,
        127,
        128,
        129,
        130,
        131,
        132,
        133,
        134,
        135,
        136,
        137,
        138,
        139,
        140,
        141,
        142,
        149,
        150,
        151,
        152,
        153,
        154,
        155,
        156,
        157,
        158,
        159,
        160,
        161,
        162,
        163,
        164,
        165,
        166,
        167
      ],
      "skeleton": 5
    }
  ],
  "textures": [
    {
      "sampler": 0,
      "source": 0
    },
    {
      "sampler": 0,
      "source": 1
    }
  ]
}
